<svg width="32" height="32" viewBox="0 0 32 32" fill="none" xmlns="http://www.w3.org/2000/svg">
<g clip-path="url(#clip0_81_3778)">
<path fill-rule="evenodd" clip-rule="evenodd" d="M22.0002 5.97092V6.2733C23.2731 6.38983 24.5356 6.54308 25.7864 6.73197C26.2495 6.80191 26.711 6.87674 27.1708 6.9564C27.715 7.05066 28.0798 7.56822 27.9855 8.1124C27.8912 8.65658 27.3737 9.02131 26.8295 8.92705C26.7367 8.91097 26.6438 8.8951 26.5509 8.87943L25.2103 26.3068C25.05 28.3908 23.3122 30 21.2221 30H10.7783C8.68811 30 6.95035 28.3908 6.79004 26.3068L5.44947 8.87943C5.35653 8.8951 5.26365 8.91097 5.17085 8.92705C4.62666 9.02131 4.1091 8.65658 4.01484 8.1124C3.92057 7.56822 4.2853 7.05066 4.82948 6.9564C5.28935 6.87674 5.75086 6.80191 6.21397 6.73197C7.46477 6.54308 8.72719 6.38983 10.0002 6.2733V5.97092C10.0002 3.88495 11.6169 2.10424 13.7541 2.03588C14.4999 2.01202 15.2486 2 16.0002 2C16.7517 2 17.5004 2.01202 18.2463 2.03588C20.3835 2.10424 22.0002 3.88495 22.0002 5.97092ZM13.818 4.03485C14.5425 4.01168 15.27 4 16.0002 4C16.7304 4 17.4578 4.01168 18.1823 4.03485C19.1885 4.06704 20.0002 4.91191 20.0002 5.97092V6.1211C18.677 6.04075 17.3433 6 16.0002 6C14.657 6 13.3233 6.04075 12.0002 6.1211V5.97092C12.0002 4.91191 12.8119 4.06704 13.818 4.03485ZM13.345 11.9616C13.3237 11.4097 12.8591 10.9795 12.3073 11.0007C11.7554 11.022 11.3252 11.4866 11.3464 12.0384L11.808 24.0384C11.8292 24.5903 12.2938 25.0205 12.8457 24.9993C13.3976 24.978 13.8277 24.5134 13.8065 23.9616L13.345 11.9616ZM20.6527 12.0384C20.6739 11.4866 20.2437 11.022 19.6918 11.0007C19.14 10.9795 18.6754 11.4097 18.6541 11.9616L18.1926 23.9616C18.1714 24.5134 18.6015 24.978 19.1534 24.9993C19.7053 25.0205 20.1699 24.5903 20.1911 24.0384L20.6527 12.0384Z" fill="#C2534C"/>
</g>
<defs>
<clipPath id="clip0_81_3778">
<rect width="32" height="32" fill="white"/>
</clipPath>
</defs>
</svg>
