<svg width="92" height="92" viewBox="0 0 92 92" fill="none" xmlns="http://www.w3.org/2000/svg">
<g clip-path="url(#clip0_81_3809)">
<path fill-rule="evenodd" clip-rule="evenodd" d="M28.75 23C28.75 13.4731 36.4731 5.75 46 5.75C55.527 5.75 63.2501 13.4731 63.2501 23C63.2501 32.5269 55.527 40.25 46 40.25C36.4731 40.25 28.75 32.5269 28.75 23Z" fill="#1B1B1B"/>
<path fill-rule="evenodd" clip-rule="evenodd" d="M14.3798 77.0704C14.6763 59.8597 28.7193 46 46 46C63.2812 46 77.3245 59.8603 77.6203 77.0717C77.6399 78.2131 76.9823 79.258 75.9447 79.7341C66.8255 83.9186 56.6817 86.25 46.0013 86.25C35.3198 86.25 25.1752 83.9181 16.0553 79.7329C15.0177 79.2568 14.3602 78.2119 14.3798 77.0704Z" fill="#1B1B1B"/>
</g>
<defs>
<clipPath id="clip0_81_3809">
<rect width="92" height="92" fill="white"/>
</clipPath>
</defs>
</svg>
