<svg width="22" height="22" viewBox="0 0 22 22" fill="none" xmlns="http://www.w3.org/2000/svg">
<g clip-path="url(#clip0_81_3774)">
<path d="M11 8.25C9.10152 8.25 7.5625 9.78902 7.5625 11.6875C7.5625 13.586 9.10152 15.125 11 15.125C12.8985 15.125 14.4375 13.586 14.4375 11.6875C14.4375 9.78902 12.8985 8.25 11 8.25Z" fill="#131313"/>
<path fill-rule="evenodd" clip-rule="evenodd" d="M8.5656 2.8152C9.37164 2.77192 10.1833 2.75 11 2.75C11.8167 2.75 12.6284 2.77192 13.4344 2.8152C14.3214 2.86283 15.1116 3.35144 15.5725 4.09002L16.3253 5.29637C16.5444 5.64758 16.9166 5.8862 17.3429 5.94679C17.6962 5.99699 18.0481 6.05133 18.3987 6.10975C19.7112 6.32846 20.625 7.47803 20.625 8.77619V16.5C20.625 18.0188 19.3938 19.25 17.875 19.25H4.125C2.60622 19.25 1.375 18.0188 1.375 16.5V8.77619C1.375 7.47802 2.28879 6.32846 3.60132 6.10974C3.95189 6.05132 4.30384 5.99699 4.65711 5.94678C5.08343 5.8862 5.45556 5.64757 5.67472 5.29636L6.4275 4.09002C6.88838 3.35144 7.67861 2.86283 8.5656 2.8152ZM6.1875 11.6875C6.1875 9.02963 8.34213 6.875 11 6.875C13.6579 6.875 15.8125 9.02963 15.8125 11.6875C15.8125 14.3454 13.6579 16.5 11 16.5C8.34213 16.5 6.1875 14.3454 6.1875 11.6875ZM17.1875 10.3125C17.5672 10.3125 17.875 10.0047 17.875 9.625C17.875 9.2453 17.5672 8.9375 17.1875 8.9375C16.8078 8.9375 16.5 9.2453 16.5 9.625C16.5 10.0047 16.8078 10.3125 17.1875 10.3125Z" fill="#131313"/>
</g>
<defs>
<clipPath id="clip0_81_3774">
<rect width="22" height="22" fill="white"/>
</clipPath>
</defs>
</svg>
