<svg width="24" height="24" viewBox="0 0 24 24" fill="none" xmlns="http://www.w3.org/2000/svg">
<g clip-path="url(#clip0_81_3741)">
<path d="M4 20.2783C4 22.0132 4.85498 22.8848 6.57324 22.8848H14.376C16.0942 22.8848 16.9492 22.0049 16.9492 20.2783V18.7427H18.4019C20.1118 18.7427 20.9751 17.8628 20.9751 16.1362V9.396C20.9751 8.375 20.7676 7.72754 20.145 7.08838L15.9531 2.83008C15.3638 2.22412 14.6665 2 13.7783 2H10.5991C8.88916 2 8.02588 2.87988 8.02588 4.60645V6.14209H6.57324C4.86328 6.14209 4 7.01367 4 8.74854V20.2783ZM16.1606 11.5874L11.5869 6.93066C10.9561 6.2832 10.4331 6.14209 9.50342 6.14209H9.3623V4.63135C9.3623 3.80957 9.80225 3.33643 10.6655 3.33643H14.3345V7.59473C14.3345 8.55762 14.7993 9.01416 15.7539 9.01416H19.6387V16.1113C19.6387 16.9414 19.1904 17.4062 18.3271 17.4062H16.9492V13.7954C16.9492 12.7329 16.8247 12.2681 16.1606 11.5874ZM15.5381 7.39551V3.99219L19.29 7.81055H15.9448C15.6543 7.81055 15.5381 7.68604 15.5381 7.39551ZM5.33643 20.2534V8.76514C5.33643 7.95166 5.77637 7.47852 6.63965 7.47852H9.3623V12.293C9.3623 13.3389 9.89355 13.8618 10.9229 13.8618H15.6128V20.2534C15.6128 21.0835 15.1646 21.5483 14.3096 21.5483H6.63135C5.77637 21.5483 5.33643 21.0835 5.33643 20.2534ZM11.0806 12.6084C10.7485 12.6084 10.6157 12.4756 10.6157 12.1436V7.78564L15.3555 12.6084H11.0806Z" fill="white"/>
</g>
<defs>
<clipPath id="clip0_81_3741">
<rect width="24" height="24" fill="white"/>
</clipPath>
</defs>
</svg>
