<svg width="22" height="22" viewBox="0 0 22 22" fill="none" xmlns="http://www.w3.org/2000/svg">
<g clip-path="url(#clip0_81_3795)">
<path fill-rule="evenodd" clip-rule="evenodd" d="M1.375 5.5C1.375 4.36091 2.29841 3.4375 3.4375 3.4375H18.5625C19.7016 3.4375 20.625 4.36091 20.625 5.5V16.5C20.625 17.6391 19.7016 18.5625 18.5625 18.5625H3.4375C2.29841 18.5625 1.375 17.6391 1.375 16.5V5.5ZM2.75 14.7223V16.5C2.75 16.8797 3.0578 17.1875 3.4375 17.1875H18.5625C18.9422 17.1875 19.25 16.8797 19.25 16.5V14.7223L16.7848 12.257C16.2478 11.7201 15.3772 11.7201 14.8402 12.257L14.0348 13.0625L14.9236 13.9514C15.1921 14.2198 15.1921 14.6552 14.9236 14.9236C14.6551 15.1921 14.2199 15.1921 13.9514 14.9236L9.22227 10.1945C8.6853 9.65757 7.8147 9.65757 7.27773 10.1945L2.75 14.7223ZM12.0312 7.5625C12.0312 6.99296 12.493 6.53125 13.0625 6.53125C13.632 6.53125 14.0938 6.99296 14.0938 7.5625C14.0938 8.13204 13.632 8.59375 13.0625 8.59375C12.493 8.59375 12.0312 8.13204 12.0312 7.5625Z" fill="white"/>
</g>
<defs>
<clipPath id="clip0_81_3795">
<rect width="22" height="22" fill="white"/>
</clipPath>
</defs>
</svg>
