<svg width="20" height="20" viewBox="0 0 20 20" fill="none" xmlns="http://www.w3.org/2000/svg">
<g clip-path="url(#clip0_81_3802)">
<g clip-path="url(#clip1_81_3802)">
<path fill-rule="evenodd" clip-rule="evenodd" d="M4.34968 4.53145C4.59376 4.28737 4.98949 4.28737 5.23357 4.53145L9.79163 9.0895L14.3497 4.53145C14.5938 4.28737 14.9895 4.28737 15.2336 4.53145C15.4776 4.77553 15.4776 5.17125 15.2336 5.41533L10.6755 9.97339L15.2336 14.5314C15.4776 14.7755 15.4776 15.1713 15.2336 15.4153C14.9895 15.6594 14.5938 15.6594 14.3497 15.4153L9.79163 10.8573L5.23357 15.4153C4.98949 15.6594 4.59376 15.6594 4.34968 15.4153C4.10561 15.1713 4.10561 14.7755 4.34968 14.5314L8.90774 9.97339L4.34968 5.41533C4.10561 5.17125 4.10561 4.77552 4.34968 4.53145Z" fill="#C2534C"/>
</g>
</g>
<defs>
<clipPath id="clip0_81_3802">
<rect width="20" height="20" rx="10" fill="white"/>
</clipPath>
<clipPath id="clip1_81_3802">
<rect width="20" height="20" fill="white" transform="translate(0 0.181763)"/>
</clipPath>
</defs>
</svg>
